<svg xmlns="http://www.w3.org/2000/svg" xmlns:xlink="http://www.w3.org/1999/xlink" version="1.1" x="0px" y="0px" viewBox="0 0 100 125" enable-background="new 0 0 100 100" xml:space="preserve"><path fill="#000000" d="M95,78.999H79.906l-1.3-9.75H81.5c0.414,0,0.75-0.335,0.75-0.75c0-0.414-0.336-0.75-0.75-0.75H65.75  c-0.414,0-0.75,0.336-0.75,0.75c0,0.415,0.336,0.75,0.75,0.75h2.894l-1.3,9.75h-16.88l-1.713-3.425  c2.241-0.536,5.05-1.748,6.42-4.489c1.881-3.762,2.243-8.918,2.312-10.836H59c0.414,0,0.75-0.335,0.75-0.75  c0-0.414-0.336-0.75-0.75-0.75h-2.25l0,0H17V30.25c0-3.309,2.691-6,6-6c3.077,0,5.619,2.329,5.96,5.316  c-2.521,0.383-4.46,2.559-4.46,5.184c0,0.414,0.336,0.75,0.75,0.75h9c0.002,0,0.003,0,0.005,0c0.414,0,0.75-0.336,0.75-0.75  c0-0.032-0.002-0.063-0.006-0.094c-0.046-2.608-2.007-4.754-4.532-5.101C30.114,25.744,26.901,22.75,23,22.75  c-4.136,0-7.5,3.365-7.5,7.5v28.499H14c-0.414,0-0.75,0.336-0.75,0.75c0,0.415,0.336,0.75,0.75,0.75h1.517  c0.069,1.918,0.432,7.074,2.312,10.836c1.371,2.741,4.179,3.953,6.42,4.489l-1.712,3.425H5c-0.414,0-0.75,0.336-0.75,0.75  c0,0.415,0.336,0.75,0.75,0.75h17.997c0.001,0,0.001,0.001,0.002,0.001s0.002-0.001,0.003-0.001h26.994  C49.998,80.499,50,80.5,50,80.5s0.001-0.001,0.002-0.001H95c0.414,0,0.75-0.335,0.75-0.75C95.75,79.335,95.414,78.999,95,78.999z   M33.425,34h-7.35c0.349-1.709,1.864-3,3.675-3S33.076,32.291,33.425,34z M78.394,78.999h-4.022v-9.75h2.723L78.394,78.999z   M70.156,69.249h2.715v9.75h-4.015L70.156,69.249z M19.171,70.414c-1.715-3.43-2.075-8.315-2.15-10.165h38.959  c-0.075,1.85-0.436,6.735-2.15,10.165c-2.013,4.025-8.267,4.085-8.329,4.085h-18C27.437,74.499,21.19,74.453,19.171,70.414z   M25.783,75.861c0.96,0.132,1.63,0.138,1.717,0.138h18c0.087,0,0.757-0.006,1.717-0.138l1.569,3.138H24.213L25.783,75.861z"/><path fill="#000000" d="M38.75,51.25h13.5c0.414,0,0.75-0.336,0.75-0.75s-0.336-0.75-0.75-0.75h-1.5v-6  c0-0.414-0.336-0.75-0.75-0.75h-3.75v-1.5c0-0.414-0.336-0.75-0.75-0.75H41c-0.414,0-0.75,0.336-0.75,0.75v8.25h-1.5  c-0.414,0-0.75,0.336-0.75,0.75S38.336,51.25,38.75,51.25z M49.25,44.5v5.25h-3V44.5H49.25z M41.75,42.25h3v1.5v6h-3V42.25z"/><path fill="#000000" d="M65.75,57.999h3.964l-0.206,1.391c-0.035,0.241,0.049,0.485,0.226,0.653  c0.141,0.134,0.326,0.206,0.517,0.206c0.049,0,0.098-0.004,0.146-0.014l11.25-2.25c0.397-0.08,0.66-0.46,0.594-0.859l-4.5-27  c-0.004-0.02-0.008-0.039-0.013-0.059c-0.626-2.506-2.122-3.943-4.103-3.943c-2.034,0-3.609,1.523-4.109,3.975  c-0.002,0.009-0.004,0.018-0.006,0.026l-4.5,27c-0.036,0.218,0.025,0.44,0.168,0.608S65.529,57.999,65.75,57.999z M70.987,30.387  c0.138-0.666,0.726-2.762,2.638-2.762c1.596,0,2.316,1.504,2.641,2.779l4.375,26.252l-9.492,1.898l1.844-12.445  c0.061-0.41-0.223-0.791-0.633-0.852c-0.037-0.006-0.074-0.008-0.11-0.008c-0.365,0-0.686,0.268-0.741,0.64l-1.571,10.609h-3.302  L70.987,30.387z"/><text x="0" y="115" fill="#000000" font-size="5px" font-weight="bold" font-family="'Helvetica Neue', Helvetica, Arial-Unicode, Arial, Sans-serif">Created by Søren Michelsen</text><text x="0" y="120" fill="#000000" font-size="5px" font-weight="bold" font-family="'Helvetica Neue', Helvetica, Arial-Unicode, Arial, Sans-serif">from the Noun Project</text></svg>