<svg xmlns="http://www.w3.org/2000/svg" xmlns:xlink="http://www.w3.org/1999/xlink" version="1.1" x="0px" y="0px" viewBox="0 0 100 125" enable-background="new 0 0 100 100" xml:space="preserve"><g><path d="M90.1,22.7c0-0.1,0-0.1,0-0.2c-0.6-7.1-6.5-12.6-13.7-12.6H59.8h-8.1H30.4h-6.7c-0.2,0-0.4,0-0.6,0c-0.1,0-0.2,0-0.3,0   c-0.1,0-0.2,0-0.3,0c-0.1,0-0.3,0-0.4,0c-0.1,0-0.1,0-0.2,0c-0.2,0-0.4,0.1-0.5,0.1c0,0,0,0,0,0c-6.4,1.1-11.3,6.8-11.3,13.5v15.5   v9.5v27.8c0,0.3,0,0.6,0,0.8c0,0,0,0,0,0c0,0,0,0,0,0c0,0.3,0,0.5,0.1,0.8c0,0,0,0,0,0c0.8,6.4,6,11.5,12.5,12c0.1,0,0.1,0,0.2,0   c0.3,0,0.6,0,0.9,0h16h11.8h9.5h15.5c6.8,0,12.4-4.9,13.5-11.3c0,0,0,0,0,0c0-0.2,0.1-0.4,0.1-0.5c0-0.1,0-0.1,0-0.2   c0-0.1,0-0.3,0-0.4c0-0.1,0-0.2,0-0.3c0-0.1,0-0.2,0-0.3c0-0.2,0-0.4,0-0.6v-6.7v-30v-16C90.1,23.3,90.1,23,90.1,22.7z M60.2,11.9   h16.2c5.7,0,10.4,4.1,11.5,9.5l-7.5,7.5c-1.7-6.3-7.5-11-14.4-11c-7.4,0-13.6,5.4-14.7,12.5l-4.8-4.8L60.2,11.9z M71.1,32.8   c0,2.8-2.3,5.1-5.1,5.1s-5.1-2.3-5.1-5.1c0-2.8,2.3-5.1,5.1-5.1S71.1,30,71.1,32.8z M49.2,11.9L41,20.1l-8.2-8.2H49.2z M11.9,23.6   c0-3.2,1.3-6.2,3.4-8.3l15.2,15.2L17.2,43.9l-5.2-5.2V23.6z M11.9,51.1l11.8,11.8L11.9,74.7V51.1z M21.4,87.8   c-3-0.6-5.7-2.4-7.4-4.8L29,68.1l6.1,6.1L21.4,87.8z M42.1,88.1l3.4-3.4l3.4,3.4H42.1z M76.4,88.1H61.3l-9.6-9.6l13.4-13.4   l19.6,19.6C82.5,86.7,79.6,88.1,76.4,88.1z M88.1,67.2L75.5,54.6l12.5-12.5V67.2z M88.1,39.2L73.3,53.9c-0.2,0.2-0.3,0.5-0.3,0.7   s0.1,0.5,0.3,0.7l14.7,14.7v6.3c0,2.4-0.7,4.7-2.1,6.7L65.8,62.9c-0.4-0.4-1.1-0.4-1.4,0L49.5,77.7c-0.2,0.2-0.3,0.5-0.3,0.7   s0.1,0.5,0.3,0.7l8.9,8.9h-6.6l-5.6-5.6c-0.4-0.4-1-0.4-1.4,0l-5.6,5.6H24.1l13.1-13.1c0.2-0.2,0.3-0.5,0.3-0.7   c0-0.3-0.1-0.5-0.3-0.7l-7.5-7.5c-0.4-0.4-1-0.4-1.4,0L13,81.2c-0.5-1.2-0.9-2.4-1-3.7l13.9-13.9c0.4-0.4,0.4-1,0-1.4l-14-14v-6.6   l4.5,4.5c0.4,0.4,1,0.4,1.4,0l14.8-14.8c0.2-0.2,0.3-0.5,0.3-0.7s-0.1-0.5-0.3-0.7L17,14.1c2-1.4,4.3-2.1,6.7-2.1h6.3l10.3,10.3   c0.4,0.4,1,0.4,1.4,0l10.3-10.3h5.2L44.3,24.9c-0.4,0.4-0.4,1,0,1.4l6.8,6.8c0.1,5.6,2.5,11.4,6.9,16.9c3.3,4.1,6.7,6.6,6.8,6.7   c0.4,0.3,0.8,0.4,1.2,0.4c0.4,0,0.9-0.1,1.2-0.4c0.1-0.1,3.5-2.6,6.8-6.7c4.5-5.6,6.9-11.5,6.9-17.3c0-0.5,0-1-0.1-1.4l7.2-7.2   V39.2z"/><path d="M36.8,33.9c-0.4-0.4-1-0.4-1.4,0L20.5,48.7c-0.2,0.2-0.3,0.5-0.3,0.7c0,0.3,0.1,0.5,0.3,0.7l20,20c0.2,0.2,0.5,0.3,0.7,0.3   s0.5-0.1,0.7-0.3l14.8-14.8c0.2-0.2,0.3-0.5,0.3-0.7s-0.1-0.5-0.3-0.7L36.8,33.9z M41.2,68L22.7,49.4l13.4-13.4l18.6,18.6L41.2,68z   "/></g><text x="0" y="115" fill="#000000" font-size="5px" font-weight="bold" font-family="'Helvetica Neue', Helvetica, Arial-Unicode, Arial, Sans-serif">Created by Michal Beno</text><text x="0" y="120" fill="#000000" font-size="5px" font-weight="bold" font-family="'Helvetica Neue', Helvetica, Arial-Unicode, Arial, Sans-serif">from the Noun Project</text></svg>