<svg xmlns="http://www.w3.org/2000/svg" xmlns:xlink="http://www.w3.org/1999/xlink" version="1.1" x="0px" y="0px" viewBox="0 0 50 62.5" enable-background="new 0 0 50 50" xml:space="preserve"><g><path d="M37.31,20.716c0.042-0.052,0.081-0.102,0.111-0.153l3.577-4.8c1.23-1.651,1.018-3.952-0.492-5.356   c-2.247-2.079-4.903-3.549-7.941-4.389V5.035c0-2.221-1.797-4.025-4.024-4.025h-4.249c-2.221,0-4.025,1.804-4.025,4.025v0.943   c-5.875,1.854-9.73,6.571-9.73,12.356c0,4.278,1.753,7.126,4.025,9.049c-0.288,0.229-0.543,0.503-0.755,0.809l-3.534,5.024   c-1.12,1.6-0.931,3.78,0.448,5.158c2.617,2.615,5.817,4.38,9.546,5.284v0.648c0,2.224,1.804,4.023,4.025,4.023h4.249   c2.228,0,4.024-1.8,4.024-4.023v-0.774c6.155-1.841,9.959-6.624,9.959-12.89C42.523,25.699,40.137,22.643,37.31,20.716z    M28.544,40.239v4.07h-4.249v-4.07c-4.751-0.408-8.234-2.218-10.726-4.706l3.529-5.023c1.675,1.764,4.167,3.349,7.197,3.891v-7.01   c-4.666-1.133-9.731-2.896-9.731-9.053c0-4.57,3.619-8.461,9.731-9.095V5.038h4.253v4.3c3.659,0.405,6.787,1.761,9.227,4.024   l-3.576,4.8c-1.622-1.494-3.615-2.445-5.65-2.943v6.24c4.708,1.176,9.954,2.987,9.954,9.184   C38.5,35.67,35.194,39.558,28.544,40.239z"/><path d="M21.171,17.843c0,1.308,1.264,1.992,3.124,2.577v-5.474C22.301,15.218,21.171,16.302,21.171,17.843z"/><path d="M28.544,28.432v6.06c2.311-0.452,3.398-1.766,3.398-3.21C31.939,29.787,30.536,29.064,28.544,28.432z"/></g><text x="0" y="65" fill="#000000" font-size="5px" font-weight="bold" font-family="'Helvetica Neue', Helvetica, Arial-Unicode, Arial, Sans-serif">Created by Luboš Volkov</text><text x="0" y="70" fill="#000000" font-size="5px" font-weight="bold" font-family="'Helvetica Neue', Helvetica, Arial-Unicode, Arial, Sans-serif">from the Noun Project</text></svg>