<svg xmlns="http://www.w3.org/2000/svg" xmlns:xlink="http://www.w3.org/1999/xlink" version="1.1" x="0px" y="0px" viewBox="0 0 31 23.75" style="enable-background:new 0 0 31 19;" xml:space="preserve"><g><g><path d="M28.813,6C28.363,6,28,6.363,28,6.812V11H3V0.812C3,0.363,2.636,0,2.188,0H0.812C0.364,0,0,0.363,0,0.812v17.375    C0,18.637,0.364,19,0.812,19h1.376C2.636,19,3,18.637,3,18.188V16h25v2.188C28,18.637,28.363,19,28.813,19h1.375    C30.637,19,31,18.637,31,18.188V6.812C31,6.363,30.637,6,30.188,6H28.813z"/><circle cx="6.928" cy="5.997" r="2.937"/><path d="M14.172,3.043c-0.809-0.084-1.616,0.18-2.22,0.725C11.348,4.312,11,5.088,11,5.901V9h16.146    C25.98,6.685,21.362,3.785,14.172,3.043z"/></g></g><text x="0" y="34" fill="#000000" font-size="5px" font-weight="bold" font-family="'Helvetica Neue', Helvetica, Arial-Unicode, Arial, Sans-serif">Created by Baboon designs</text><text x="0" y="39" fill="#000000" font-size="5px" font-weight="bold" font-family="'Helvetica Neue', Helvetica, Arial-Unicode, Arial, Sans-serif">from the Noun Project</text></svg>