<svg xmlns="http://www.w3.org/2000/svg" xmlns:xlink="http://www.w3.org/1999/xlink" version="1.1" x="0px" y="0px" viewBox="0 0 100 125" enable-background="new 0 0 100 100" xml:space="preserve"><path d="M72.176,69.302c2.627-0.007,4.761-2.139,4.774-4.773c-0.014-2.632-2.147-4.766-4.774-4.773  c-2.64,0.008-4.773,2.142-4.769,4.773C67.402,67.163,69.536,69.295,72.176,69.302L72.176,69.302z"/><rect x="20.156" y="71.949" width="60.174" height="8.928"/><path d="M78.537,39.587c-0.145-0.043-14.487-4.269-28.952-4.269c-13.829,0-27.646,4.214-27.783,4.256l-2.762-8.95  c0.618-0.191,15.32-4.674,30.545-4.674c15.873,0,30.999,4.471,31.635,4.662L78.537,39.587L78.537,39.587z"/><g><path d="M62.401,62.999H53.37l4.602-6.695c0.462-0.672,0.614-1.507,0.42-2.296c-0.195-0.791-0.72-1.461-1.444-1.848l-9.552-5.115   c-1.412-0.759-3.182-0.239-3.949,1.158c-0.766,1.397-0.241,3.142,1.174,3.9l6.726,3.6c0,0-6.616,9.688-6.627,9.718   c-0.362,0.541-0.526,1.31-0.526,2.053c0,2.472,2.028,4.476,4.531,4.476h13.678c2.503,0,4.53-2.004,4.53-4.476   C66.932,65.001,64.904,62.999,62.401,62.999z"/><rect x="32.373" y="51.404" transform="matrix(0.9263 -0.3768 0.3768 0.9263 -17.093 17.3774)" width="6.988" height="1.943"/><rect x="39.319" y="54.242" transform="matrix(-0.8464 -0.5326 0.5326 -0.8464 43.6678 127.9716)" width="1.942" height="6.893"/></g><path d="M64.096,4.46c-0.375-0.159-9.36-3.33-23.514,1.047c-5.225,1.616-10.356,4.727-15.251,9.247  c-1.313,1.213-1.395,3.26-0.183,4.573c0.639,0.691,1.507,1.041,2.379,1.041c0.785,0,1.572-0.284,2.194-0.858  c4.18-3.86,8.478-6.49,12.773-7.819c7.348-2.271,12.229-0.866,14.77,0.407l-9.044,6.417c-1.167,0.827-1.441,2.443-0.614,3.61  c0.505,0.711,1.303,1.091,2.114,1.091c0.518,0,1.041-0.155,1.495-0.478l13.586-9.637C67.614,11.338,68.667,6.394,64.096,4.46z"/><path d="M68.06,5.982c0.228-2.587,2.511-4.501,5.091-4.275c2.594,0.23,4.507,2.51,4.282,5.099c-0.23,2.595-2.51,4.507-5.099,4.274  C69.747,10.856,67.831,8.578,68.06,5.982z"/><path d="M82.576,23.216V40.46H17.995V23.1h-7.184L10.792,99.61h7.202h0.042v-9.616h64.54v9.616h7.202V23.216H82.576z M17.995,83.203  l0.042-35.951h64.54v35.951H17.995z"/><text x="0" y="115" fill="#000000" font-size="5px" font-weight="bold" font-family="'Helvetica Neue', Helvetica, Arial-Unicode, Arial, Sans-serif">Created by Luis Prado</text><text x="0" y="120" fill="#000000" font-size="5px" font-weight="bold" font-family="'Helvetica Neue', Helvetica, Arial-Unicode, Arial, Sans-serif">from the Noun Project</text></svg>